<svg xmlns="http://www.w3.org/2000/svg" width="720" height="310" viewBox="0 0 720 310" role="img" aria-label="q″ = x − 3q′ − 2q；y = q′ + 4q"><rect width="720" height="310" fill="white"/><style>text{font:17px 'Microsoft YaHei',sans-serif;fill:#20364c}.axis{stroke:#6b7785;stroke-width:1.5}.curve{fill:none;stroke:#1f4e79;stroke-width:3}</style><text x="24" y="30">q″ = x − 3q′ − 2q；y = q′ + 4q</text><defs><marker id="a" markerWidth="7" markerHeight="7" refX="6" refY="3.5" orient="auto"><path d="M0 0L7 3.5L0 7" fill="#1f4e79"/></marker></defs><g stroke="#1f4e79" stroke-width="2" fill="none"><circle cx="130" cy="145" r="20"/><rect x="230" y="122" width="70" height="46"/><rect x="410" y="122" width="70" height="46"/><circle cx="610" cy="145" r="20"/><path marker-end="url(#a)" d="M40 145H110 M150 145H230 M300 145H410 M480 145H590 M630 145H685 M350 145V72H610V125 M530 145V220H610V165 M350 145V204H130V165 M530 145V245H130V165"/></g><text x="122" y="151">Σ</text><text x="602" y="151">Σ</text><text x="253" y="151">1/s</text><text x="433" y="151">1/s</text><text x="45" y="134">x</text><text x="170" y="134">q″</text><text x="335" y="134">q′</text><text x="510" y="134">q</text><text x="660" y="134">y</text><text x="425" y="62">1</text><text x="555" y="211">4</text><text x="230" y="197">−3</text><text x="360" y="238">−2</text><text x="24" y="289" font-size="14">两个积分器串联；负反馈 −3、−2，前馈 1、4。</text></svg>