<svg xmlns="http://www.w3.org/2000/svg" width="660" height="310" viewBox="0 0 660 310" role="img">
<defs><marker id="arrow" markerWidth="8" markerHeight="8" refX="7" refY="4" orient="auto"><path d="M0,0 L8,4 L0,8 Z" fill="#334155"/></marker></defs>
<rect width="660" height="310" fill="white"/>
<line x1="35" y1="235.0" x2="617" y2="235.0" stroke="#334155" stroke-width="1.5" marker-end="url(#arrow)"/>
<line x1="113.0" y1="252" x2="113.0" y2="27" stroke="#334155" stroke-width="1.5" marker-end="url(#arrow)"/>
<text x="632" y="255.0" font-family="Arial,sans-serif" font-size="18" text-anchor="middle" fill="#334155">t</text>
<text x="131.0" y="29" font-family="Arial,sans-serif" font-size="18" text-anchor="middle" fill="#334155">f</text>
<line x1="113.0" y1="235.0" x2="113.0" y2="240.0" stroke="#334155" stroke-width="1.5"/>
<text x="113.0" y="276" font-family="Arial,sans-serif" font-size="18" text-anchor="middle" fill="#334155">0</text>
<line x1="219.0" y1="235.0" x2="219.0" y2="240.0" stroke="#334155" stroke-width="1.5"/>
<text x="219.0" y="276" font-family="Arial,sans-serif" font-size="18" text-anchor="middle" fill="#334155">1</text>
<line x1="325.0" y1="235.0" x2="325.0" y2="240.0" stroke="#334155" stroke-width="1.5"/>
<text x="325.0" y="276" font-family="Arial,sans-serif" font-size="18" text-anchor="middle" fill="#334155">2</text>
<line x1="431.0" y1="235.0" x2="431.0" y2="240.0" stroke="#334155" stroke-width="1.5"/>
<text x="431.0" y="276" font-family="Arial,sans-serif" font-size="18" text-anchor="middle" fill="#334155">3</text>
<line x1="537.0" y1="235.0" x2="537.0" y2="240.0" stroke="#334155" stroke-width="1.5"/>
<text x="537.0" y="276" font-family="Arial,sans-serif" font-size="18" text-anchor="middle" fill="#334155">4</text>
<line x1="109.0" y1="80.83333333333331" x2="113.0" y2="80.83333333333331" stroke="#334155" stroke-width="1.5"/>
<text x="104.0" y="85.83333333333331" font-family="Arial,sans-serif" font-size="18" text-anchor="end" fill="#334155">1</text>
<polyline points="60.000,235.000 113.000,235.000 113.000,235.000 219.000,80.833 219.000,235.000 219.000,235.000 325.000,80.833 325.000,235.000 325.000,235.000 431.000,80.833 431.000,235.000 431.000,235.000 537.000,80.833 537.000,235.000 590.000,157.917" fill="none" stroke="#0f766e" stroke-width="3"/>
</svg>