<svg xmlns="http://www.w3.org/2000/svg" width="660" height="310" viewBox="0 0 660 310" role="img">
<defs><marker id="arrow" markerWidth="8" markerHeight="8" refX="7" refY="4" orient="auto"><path d="M0,0 L8,4 L0,8 Z" fill="#334155"/></marker></defs>
<rect width="660" height="310" fill="white"/>
<line x1="35" y1="142.5" x2="617" y2="142.5" stroke="#334155" stroke-width="1.5" marker-end="url(#arrow)"/>
<line x1="135.71428571428572" y1="252" x2="135.71428571428572" y2="27" stroke="#334155" stroke-width="1.5" marker-end="url(#arrow)"/>
<text x="632" y="162.5" font-family="Arial,sans-serif" font-size="18" text-anchor="middle" fill="#334155">t</text>
<text x="153.71428571428572" y="29" font-family="Arial,sans-serif" font-size="18" text-anchor="middle" fill="#334155">f</text>
<line x1="135.71428571428572" y1="142.5" x2="135.71428571428572" y2="147.5" stroke="#334155" stroke-width="1.5"/>
<text x="135.71428571428572" y="276" font-family="Arial,sans-serif" font-size="18" text-anchor="middle" fill="#334155">0</text>
<line x1="230.35714285714286" y1="142.5" x2="230.35714285714286" y2="147.5" stroke="#334155" stroke-width="1.5"/>
<text x="230.35714285714286" y="276" font-family="Arial,sans-serif" font-size="18" text-anchor="middle" fill="#334155">T/4</text>
<line x1="325.0" y1="142.5" x2="325.0" y2="147.5" stroke="#334155" stroke-width="1.5"/>
<text x="325.0" y="276" font-family="Arial,sans-serif" font-size="18" text-anchor="middle" fill="#334155">T/2</text>
<line x1="419.64285714285717" y1="142.5" x2="419.64285714285717" y2="147.5" stroke="#334155" stroke-width="1.5"/>
<text x="419.64285714285717" y="276" font-family="Arial,sans-serif" font-size="18" text-anchor="middle" fill="#334155">3T/4</text>
<line x1="514.2857142857143" y1="142.5" x2="514.2857142857143" y2="147.5" stroke="#334155" stroke-width="1.5"/>
<text x="514.2857142857143" y="276" font-family="Arial,sans-serif" font-size="18" text-anchor="middle" fill="#334155">T</text>
<line x1="131.71428571428572" y1="213.65384615384616" x2="135.71428571428572" y2="213.65384615384616" stroke="#334155" stroke-width="1.5"/>
<text x="126.71428571428572" y="218.65384615384616" font-family="Arial,sans-serif" font-size="18" text-anchor="end" fill="#334155">-1</text>
<line x1="131.71428571428572" y1="71.34615384615387" x2="135.71428571428572" y2="71.34615384615387" stroke="#334155" stroke-width="1.5"/>
<text x="126.71428571428572" y="76.34615384615387" font-family="Arial,sans-serif" font-size="18" text-anchor="end" fill="#334155">1</text>
<polyline points="60.000,142.500 135.714,142.500 136.556,140.513 137.397,138.528 138.238,136.546 139.079,134.569 139.921,132.597 140.762,130.634 141.603,128.679 142.444,126.736 143.286,124.805 144.127,122.887 144.968,120.985 145.810,119.100 146.651,117.233 147.492,115.385 148.333,113.559 149.175,111.755 150.016,109.976 150.857,108.221 151.698,106.494 152.540,104.794 153.381,103.124 154.222,101.485 155.063,99.877 155.905,98.303 156.746,96.763 157.587,95.259 158.429,93.792 159.270,92.363 160.111,90.972 160.952,89.622 161.794,88.314 162.635,87.047 163.476,85.824 164.317,84.645 165.159,83.511 166.000,82.423 166.841,81.382 167.683,80.388 168.524,79.443 169.365,78.547 170.206,77.701 171.048,76.906 171.889,76.162 172.730,75.469 173.571,74.829 174.413,74.241 175.254,73.707 176.095,73.226 176.937,72.799 177.778,72.427 178.619,72.109 179.460,71.847 180.302,71.639 181.143,71.487 181.984,71.389 182.825,71.348 183.667,71.362 184.508,71.431 185.349,71.556 186.190,71.736 187.032,71.971 187.873,72.261 188.714,72.606 189.556,73.006 190.397,73.460 191.238,73.967 192.079,74.528 192.921,75.142 193.762,75.809 194.603,76.527 195.444,77.297 196.286,78.118 197.127,78.989 197.968,79.910 198.810,80.879 199.651,81.896 200.492,82.961 201.333,84.072 202.175,85.229 203.016,86.430 203.857,87.675 204.698,88.963 205.540,90.292 206.381,91.663 207.222,93.072 208.063,94.521 208.905,96.007 209.746,97.529 210.587,99.086 211.429,100.677 212.270,102.300 213.111,103.955 213.952,105.640 214.794,107.354 215.635,109.095 216.476,110.862 217.317,112.654 218.159,114.470 219.000,116.307 219.841,118.164 220.683,120.040 221.524,121.934 222.365,123.844 223.206,125.769 224.048,127.706 224.889,129.655 225.730,131.614 226.571,133.582 227.413,135.557 228.254,137.537 229.095,139.520 229.937,141.507 230.778,143.493 231.619,145.480 232.460,147.463 233.302,149.443 234.143,151.418 234.984,153.386 235.825,155.345 236.667,157.294 237.508,159.231 238.349,161.156 239.190,163.066 240.032,164.960 240.873,166.836 241.714,168.693 242.556,170.530 243.397,172.346 244.238,174.138 245.079,175.905 245.921,177.646 246.762,179.360 247.603,181.045 248.444,182.700 249.286,184.323 250.127,185.914 250.968,187.471 251.810,188.993 252.651,190.479 253.492,191.928 254.333,193.337 255.175,194.708 256.016,196.037 256.857,197.325 257.698,198.570 258.540,199.771 259.381,200.928 260.222,202.039 261.063,203.104 261.905,204.121 262.746,205.090 263.587,206.011 264.429,206.882 265.270,207.703 266.111,208.473 266.952,209.191 267.794,209.858 268.635,210.472 269.476,211.033 270.317,211.540 271.159,211.994 272.000,212.394 272.841,212.739 273.683,213.029 274.524,213.264 275.365,213.444 276.206,213.569 277.048,213.638 277.889,213.652 278.730,213.611 279.571,213.513 280.413,213.361 281.254,213.153 282.095,212.891 282.937,212.573 283.778,212.201 284.619,211.774 285.460,211.293 286.302,210.759 287.143,210.171 287.984,209.531 288.825,208.838 289.667,208.094 290.508,207.299 291.349,206.453 292.190,205.557 293.032,204.612 293.873,203.618 294.714,202.577 295.556,201.489 296.397,200.355 297.238,199.176 298.079,197.953 298.921,196.686 299.762,195.378 300.603,194.028 301.444,192.637 302.286,191.208 303.127,189.741 303.968,188.237 304.810,186.697 305.651,185.123 306.492,183.515 307.333,181.876 308.175,180.206 309.016,178.506 309.857,176.779 310.698,175.024 311.540,173.245 312.381,171.441 313.222,169.615 314.063,167.767 314.905,165.900 315.746,164.015 316.587,162.113 317.429,160.195 318.270,158.264 319.111,156.321 319.952,154.366 320.794,152.403 321.635,150.431 322.476,148.454 323.317,146.472 324.159,144.487 325.000,142.500 325.841,140.513 326.683,138.528 327.524,136.546 328.365,134.569 329.206,132.597 330.048,130.634 330.889,128.679 331.730,126.736 332.571,124.805 333.413,122.887 334.254,120.985 335.095,119.100 335.937,117.233 336.778,115.385 337.619,113.559 338.460,111.755 339.302,109.976 340.143,108.221 340.984,106.494 341.825,104.794 342.667,103.124 343.508,101.485 344.349,99.877 345.190,98.303 346.032,96.763 346.873,95.259 347.714,93.792 348.556,92.363 349.397,90.972 350.238,89.622 351.079,88.314 351.921,87.047 352.762,85.824 353.603,84.645 354.444,83.511 355.286,82.423 356.127,81.382 356.968,80.388 357.810,79.443 358.651,78.547 359.492,77.701 360.333,76.906 361.175,76.162 362.016,75.469 362.857,74.829 363.698,74.241 364.540,73.707 365.381,73.226 366.222,72.799 367.063,72.427 367.905,72.109 368.746,71.847 369.587,71.639 370.429,71.487 371.270,71.389 372.111,71.348 372.952,71.362 373.794,71.431 374.635,71.556 375.476,71.736 376.317,71.971 377.159,72.261 378.000,72.606 378.841,73.006 379.683,73.460 380.524,73.967 381.365,74.528 382.206,75.142 383.048,75.809 383.889,76.527 384.730,77.297 385.571,78.118 386.413,78.989 387.254,79.910 388.095,80.879 388.937,81.896 389.778,82.961 390.619,84.072 391.460,85.229 392.302,86.430 393.143,87.675 393.984,88.963 394.825,90.292 395.667,91.663 396.508,93.072 397.349,94.521 398.190,96.007 399.032,97.529 399.873,99.086 400.714,100.677 401.556,102.300 402.397,103.955 403.238,105.640 404.079,107.354 404.921,109.095 405.762,110.862 406.603,112.654 407.444,114.470 408.286,116.307 409.127,118.164 409.968,120.040 410.810,121.934 411.651,123.844 412.492,125.769 413.333,127.706 414.175,129.655 415.016,131.614 415.857,133.582 416.698,135.557 417.540,137.537 418.381,139.520 419.222,141.507 420.063,143.493 420.905,145.480 421.746,147.463 422.587,149.443 423.429,151.418 424.270,153.386 425.111,155.345 425.952,157.294 426.794,159.231 427.635,161.156 428.476,163.066 429.317,164.960 430.159,166.836 431.000,168.693 431.841,170.530 432.683,172.346 433.524,174.138 434.365,175.905 435.206,177.646 436.048,179.360 436.889,181.045 437.730,182.700 438.571,184.323 439.413,185.914 440.254,187.471 441.095,188.993 441.937,190.479 442.778,191.928 443.619,193.337 444.460,194.708 445.302,196.037 446.143,197.325 446.984,198.570 447.825,199.771 448.667,200.928 449.508,202.039 450.349,203.104 451.190,204.121 452.032,205.090 452.873,206.011 453.714,206.882 454.556,207.703 455.397,208.473 456.238,209.191 457.079,209.858 457.921,210.472 458.762,211.033 459.603,211.540 460.444,211.994 461.286,212.394 462.127,212.739 462.968,213.029 463.810,213.264 464.651,213.444 465.492,213.569 466.333,213.638 467.175,213.652 468.016,213.611 468.857,213.513 469.698,213.361 470.540,213.153 471.381,212.891 472.222,212.573 473.063,212.201 473.905,211.774 474.746,211.293 475.587,210.759 476.429,210.171 477.270,209.531 478.111,208.838 478.952,208.094 479.794,207.299 480.635,206.453 481.476,205.557 482.317,204.612 483.159,203.618 484.000,202.577 484.841,201.489 485.683,200.355 486.524,199.176 487.365,197.953 488.206,196.686 489.048,195.378 489.889,194.028 490.730,192.637 491.571,191.208 492.413,189.741 493.254,188.237 494.095,186.697 494.937,185.123 495.778,183.515 496.619,181.876 497.460,180.206 498.302,178.506 499.143,176.779 499.984,175.024 500.825,173.245 501.667,171.441 502.508,169.615 503.349,167.767 504.190,165.900 505.032,164.015 505.873,162.113 506.714,160.195 507.556,158.264 508.397,156.321 509.238,154.366 510.079,152.403 510.921,150.431 511.762,148.454 512.603,146.472 513.444,144.487 514.286,142.500 590.000,142.500" fill="none" stroke="#0f766e" stroke-width="3"/>
</svg>